<?xml version="1.0" standalone="no"?><!DOCTYPE svg PUBLIC "-//W3C//DTD SVG 1.1//EN" "http://www.w3.org/Graphics/SVG/1.1/DTD/svg11.dtd"><svg t="1500977860567" class="icon" style="" viewBox="0 0 1024 1024" version="1.1" xmlns="http://www.w3.org/2000/svg" p-id="20705" xmlns:xlink="http://www.w3.org/1999/xlink" width="16" height="16"><defs><style type="text/css"></style></defs><path d="M1022.0288 980.578462 656.768 615.896615C787.971938 471.370831 776.290462 255.2832 636.658215 115.879385 566.910031 46.225723 474.184862 7.874954 375.542154 7.874954 276.891569 7.874954 184.1664 46.225723 114.418215 115.879385-29.536492 259.607631-29.536492 493.548308 114.418215 637.282462 184.1664 706.928246 276.891569 745.280985 375.542154 745.280985 468.046769 745.280985 547.237415 719.064615 615.264492 657.398154L980.48 1022.030769 1022.0288 980.578462 1022.0288 980.578462ZM148.751754 601.686646C23.951754 477.313969 23.951754 274.900677 148.751754 150.528 209.234708 90.277415 289.604923 57.091938 375.128615 57.091938 460.654277 57.091938 541.022523 90.277415 601.507446 150.528 726.329108 274.900677 726.329108 477.313969 601.507446 601.686646 541.022523 661.943138 460.654277 695.122708 375.128615 695.122708 289.604923 695.104985 209.216985 661.919508 148.751754 601.686646L148.751754 601.686646Z" p-id="20706" fill="#d6d6d6"></path></svg>