<?xml version="1.0" standalone="no"?><!DOCTYPE svg PUBLIC "-//W3C//DTD SVG 1.1//EN" "http://www.w3.org/Graphics/SVG/1.1/DTD/svg11.dtd"><svg t="1500971065752" class="icon" style="" viewBox="0 0 1024 1024" version="1.1" xmlns="http://www.w3.org/2000/svg" p-id="2052" xmlns:xlink="http://www.w3.org/1999/xlink" width="32" height="32"><defs><style type="text/css"></style></defs><path d="M920.667022 94.572089 920.667022 93.024711c-0.159289-0.364089-0.432356-0.6144-0.591644-0.955733-2.207289-8.3968-9.511822-14.700089-18.591289-14.700089-1.092267 0-2.048 0.341333-3.072 0.523378l-0.136533-0.546133L345.725156 204.549689c-8.874667 0.295822-15.997156 7.486578-15.997156 16.429511 0 0.477867 0.227556 0.864711 0.273067 1.342578-0.341333 1.046756-0.750933 2.070756-0.750933 3.117511l0 511.431111c-34.656711-21.799822-83.626667-27.4432-131.003733-10.717867-72.4992 25.622756-113.163378 93.161244-90.817422 150.869333 22.3232 57.730844 99.214222 83.7632 171.690667 58.140444 64.512-22.778311 103.515022-78.756978 95.6416-131.4816L374.761244 427.440356l500.622222-114.528711 0 287.402667c-34.656711-21.799822-83.626667-27.4432-131.003733-10.717867-72.4992 25.6-113.163378 93.161244-90.817422 150.869333 22.3232 57.730844 99.191467 83.7632 171.690667 58.140444 50.153244-17.681067 84.423111-55.546311 93.7984-96.256 0.136533-0.318578 0.113778-0.682667 0.250311-1.024 1.024-4.7104 1.570133-9.443556 1.979733-14.199467l0.159289 0 0-1.160533c0.159289-2.343822 0-4.664889 0-7.008711L921.440711 94.572089 920.667022 94.572089zM263.190756 897.797689c-46.580622 16.452267-95.982933-0.273067-110.318933-37.387378-14.358756-37.0688 11.764622-80.4864 58.345244-96.938667 46.580622-16.452267 95.960178 0.273067 110.318933 37.387378C335.894756 837.927822 309.771378 881.345422 263.190756 897.797689zM809.324089 761.264356c-46.580622 16.452267-95.982933-0.273067-110.318933-37.364622-14.358756-37.091556 11.764622-80.509156 58.345244-96.961422 46.580622-16.452267 95.982933 0.273067 110.341689 37.387378C882.028089 701.394489 855.904711 744.812089 809.324089 761.264356zM875.383467 266.262756l-500.622222 114.505956 0-135.3728 500.622222-114.528711L875.383467 266.262756z" p-id="2053" fill="#afabaa"></path></svg>