<?xml version="1.0" standalone="no"?><!DOCTYPE svg PUBLIC "-//W3C//DTD SVG 1.1//EN" "http://www.w3.org/Graphics/SVG/1.1/DTD/svg11.dtd"><svg t="1500975724965" class="icon" style="" viewBox="0 0 1024 1024" version="1.1" xmlns="http://www.w3.org/2000/svg" p-id="3473" xmlns:xlink="http://www.w3.org/1999/xlink" width="32" height="32"><defs><style type="text/css"></style></defs><path d="M859.355661 914.994354c-11.129478 0-20.149922-9.021467-20.149922-20.149922 0-11.124362 9.020444-20.149922 20.149922-20.149922 11.652388 0 22.166859-5.437849 28.854165-14.925944 6.988158-9.907651 8.601912-22.24463 4.441149-33.855062-38.211277-106.771769-125.399011-191.632505-233.239112-227.022527-10.580986-3.470031-16.325827-14.854313-12.865006-25.433252 3.479241-10.565636 14.878872-16.293081 25.421996-12.860912 119.585609 39.242769 216.260415 133.347031 258.622222 251.740488 8.499581 23.760147 4.980431 50.169633-9.441023 70.631664C906.820696 903.323547 884.291586 914.994354 859.355661 914.994354z" p-id="3474" fill="#afabaa"></path><path d="M205.013769 915.003564c-24.926716 0-47.455825-11.680017-61.785182-32.036647-14.422478-20.472264-17.948791-46.88175-9.422603-70.631664 42.361807-118.380154 139.037636-212.487485 258.623245-251.740488 10.607592-3.432169 21.940708 2.295276 25.420973 12.860912 3.460822 10.579963-2.285043 21.964244-12.865006 25.433252-107.841124 35.404348-195.027835 120.274294-233.249345 227.031736-4.151553 11.612479-2.536776 23.938202 4.431939 33.844829 6.689353 9.495258 17.202801 14.936177 28.844955 14.936177 11.137665 0 20.149922 9.025561 20.149922 20.149922C225.163691 905.982096 216.151433 915.003564 205.013769 915.003564z" p-id="3475" fill="#afabaa"></path><path d="M532.203646 632.895441c-144.438647 0-261.954107-117.507274-261.954107-261.950014S387.764999 108.995413 532.203646 108.995413c144.428414 0 261.943874 117.506251 261.943874 261.948991S676.632059 632.895441 532.203646 632.895441zM532.203646 149.296281c-122.226762 0-221.654262 99.4275-221.654262 221.648123 0 122.218576 99.4275 221.648123 221.654262 221.648123 122.216529 0 221.645053-99.429547 221.645053-221.648123C753.848699 248.723781 654.420175 149.296281 532.203646 149.296281z" p-id="3476" fill="#afabaa"></path></svg>